<svg id="visual" viewBox="0 0 960 200" width="960" height="200" xmlns="http://www.w3.org/2000/svg" xmlns:xlink="http://www.w3.org/1999/xlink" version="1.1"><path d="M0 158L22.8 159.7C45.7 161.3 91.3 164.7 137 159.7C182.7 154.7 228.3 141.3 274 136.2C319.7 131 365.3 134 411.2 138.8C457 143.7 503 150.3 548.8 149.7C594.7 149 640.3 141 686 143.8C731.7 146.7 777.3 160.3 823 159.8C868.7 159.3 914.3 144.7 937.2 137.3L960 130L960 201L937.2 201C914.3 201 868.7 201 823 201C777.3 201 731.7 201 686 201C640.3 201 594.7 201 548.8 201C503 201 457 201 411.2 201C365.3 201 319.7 201 274 201C228.3 201 182.7 201 137 201C91.3 201 45.7 201 22.8 201L0 201Z" fill="#778da9" stroke-linecap="round" stroke-linejoin="miter"></path></svg>