<svg id="visual" viewBox="0 0 960 200" width="960" height="200" xmlns="http://www.w3.org/2000/svg" xmlns:xlink="http://www.w3.org/1999/xlink" version="1.1"><path d="M0 81L22.8 77.8C45.7 74.7 91.3 68.3 137 65.8C182.7 63.3 228.3 64.7 274 66.2C319.7 67.7 365.3 69.3 411.2 67.8C457 66.3 503 61.7 548.8 62.3C594.7 63 640.3 69 686 71.5C731.7 74 777.3 73 823 69.5C868.7 66 914.3 60 937.2 57L960 54L960 0L937.2 0C914.3 0 868.7 0 823 0C777.3 0 731.7 0 686 0C640.3 0 594.7 0 548.8 0C503 0 457 0 411.2 0C365.3 0 319.7 0 274 0C228.3 0 182.7 0 137 0C91.3 0 45.7 0 22.8 0L0 0Z" fill="#1e364e"></path><path d="M0 46L22.8 46.5C45.7 47 91.3 48 137 51.3C182.7 54.7 228.3 60.3 274 62C319.7 63.7 365.3 61.3 411.2 56.8C457 52.3 503 45.7 548.8 43.3C594.7 41 640.3 43 686 43.5C731.7 44 777.3 43 823 42.5C868.7 42 914.3 42 937.2 42L960 42L960 0L937.2 0C914.3 0 868.7 0 823 0C777.3 0 731.7 0 686 0C640.3 0 594.7 0 548.8 0C503 0 457 0 411.2 0C365.3 0 319.7 0 274 0C228.3 0 182.7 0 137 0C91.3 0 45.7 0 22.8 0L0 0Z" fill="#344a64"></path><path d="M0 52L22.8 50C45.7 48 91.3 44 137 43C182.7 42 228.3 44 274 45C319.7 46 365.3 46 411.2 44.5C457 43 503 40 548.8 39.3C594.7 38.7 640.3 40.3 686 43C731.7 45.7 777.3 49.3 823 50.5C868.7 51.7 914.3 50.3 937.2 49.7L960 49L960 0L937.2 0C914.3 0 868.7 0 823 0C777.3 0 731.7 0 686 0C640.3 0 594.7 0 548.8 0C503 0 457 0 411.2 0C365.3 0 319.7 0 274 0C228.3 0 182.7 0 137 0C91.3 0 45.7 0 22.8 0L0 0Z" fill="#4a607a"></path><path d="M0 29L22.8 27.8C45.7 26.7 91.3 24.3 137 23.7C182.7 23 228.3 24 274 24.3C319.7 24.7 365.3 24.3 411.2 24.5C457 24.7 503 25.3 548.8 27.5C594.7 29.7 640.3 33.3 686 34.5C731.7 35.7 777.3 34.3 823 32.3C868.7 30.3 914.3 27.7 937.2 26.3L960 25L960 0L937.2 0C914.3 0 868.7 0 823 0C777.3 0 731.7 0 686 0C640.3 0 594.7 0 548.8 0C503 0 457 0 411.2 0C365.3 0 319.7 0 274 0C228.3 0 182.7 0 137 0C91.3 0 45.7 0 22.8 0L0 0Z" fill="#607691"></path><path d="M0 14L22.8 13.5C45.7 13 91.3 12 137 11.8C182.7 11.7 228.3 12.3 274 12.8C319.7 13.3 365.3 13.7 411.2 13.5C457 13.3 503 12.7 548.8 11.8C594.7 11 640.3 10 686 9.8C731.7 9.7 777.3 10.3 823 11C868.7 11.7 914.3 12.3 937.2 12.7L960 13L960 0L937.2 0C914.3 0 868.7 0 823 0C777.3 0 731.7 0 686 0C640.3 0 594.7 0 548.8 0C503 0 457 0 411.2 0C365.3 0 319.7 0 274 0C228.3 0 182.7 0 137 0C91.3 0 45.7 0 22.8 0L0 0Z" fill="#778da9"></path></svg>