<svg id="visual" viewBox="0 0 960 480" width="960" height="480" xmlns="http://www.w3.org/2000/svg" xmlns:xlink="http://www.w3.org/1999/xlink" version="1.1"><path d="M0 318L22.8 320C45.7 322 91.3 326 137 322.5C182.7 319 228.3 308 274 308.5C319.7 309 365.3 321 411.2 325C457 329 503 325 548.8 325.7C594.7 326.3 640.3 331.7 686 335.3C731.7 339 777.3 341 823 342.7C868.7 344.3 914.3 345.7 937.2 346.3L960 347L960 481L937.2 481C914.3 481 868.7 481 823 481C777.3 481 731.7 481 686 481C640.3 481 594.7 481 548.8 481C503 481 457 481 411.2 481C365.3 481 319.7 481 274 481C228.3 481 182.7 481 137 481C91.3 481 45.7 481 22.8 481L0 481Z" fill="#1e364e"></path><path d="M0 382L22.8 382.2C45.7 382.3 91.3 382.7 137 381.8C182.7 381 228.3 379 274 376.2C319.7 373.3 365.3 369.7 411.2 361.5C457 353.3 503 340.7 548.8 336.3C594.7 332 640.3 336 686 337C731.7 338 777.3 336 823 333C868.7 330 914.3 326 937.2 324L960 322L960 481L937.2 481C914.3 481 868.7 481 823 481C777.3 481 731.7 481 686 481C640.3 481 594.7 481 548.8 481C503 481 457 481 411.2 481C365.3 481 319.7 481 274 481C228.3 481 182.7 481 137 481C91.3 481 45.7 481 22.8 481L0 481Z" fill="#344a64"></path><path d="M0 397L22.8 390C45.7 383 91.3 369 137 362.3C182.7 355.7 228.3 356.3 274 360C319.7 363.7 365.3 370.3 411.2 375C457 379.7 503 382.3 548.8 386.2C594.7 390 640.3 395 686 393.2C731.7 391.3 777.3 382.7 823 377C868.7 371.3 914.3 368.7 937.2 367.3L960 366L960 481L937.2 481C914.3 481 868.7 481 823 481C777.3 481 731.7 481 686 481C640.3 481 594.7 481 548.8 481C503 481 457 481 411.2 481C365.3 481 319.7 481 274 481C228.3 481 182.7 481 137 481C91.3 481 45.7 481 22.8 481L0 481Z" fill="#4a607a"></path><path d="M0 418L22.8 417.8C45.7 417.7 91.3 417.3 137 412.5C182.7 407.7 228.3 398.3 274 400.3C319.7 402.3 365.3 415.7 411.2 422.3C457 429 503 429 548.8 422C594.7 415 640.3 401 686 400.7C731.7 400.3 777.3 413.7 823 420.7C868.7 427.7 914.3 428.3 937.2 428.7L960 429L960 481L937.2 481C914.3 481 868.7 481 823 481C777.3 481 731.7 481 686 481C640.3 481 594.7 481 548.8 481C503 481 457 481 411.2 481C365.3 481 319.7 481 274 481C228.3 481 182.7 481 137 481C91.3 481 45.7 481 22.8 481L0 481Z" fill="#607691"></path><path d="M0 434L22.8 437.7C45.7 441.3 91.3 448.7 137 452C182.7 455.3 228.3 454.7 274 452.5C319.7 450.3 365.3 446.7 411.2 447.5C457 448.3 503 453.7 548.8 451.7C594.7 449.7 640.3 440.3 686 438.8C731.7 437.3 777.3 443.7 823 447.5C868.7 451.3 914.3 452.7 937.2 453.3L960 454L960 481L937.2 481C914.3 481 868.7 481 823 481C777.3 481 731.7 481 686 481C640.3 481 594.7 481 548.8 481C503 481 457 481 411.2 481C365.3 481 319.7 481 274 481C228.3 481 182.7 481 137 481C91.3 481 45.7 481 22.8 481L0 481Z" fill="#778da9"></path></svg>