<svg id="visual" viewBox="0 0 960 480" width="960" height="480" xmlns="http://www.w3.org/2000/svg" xmlns:xlink="http://www.w3.org/1999/xlink" version="1.1"><rect x="0" y="0" width="960" height="480" fill="#001220"></rect><path d="M0 160L22.8 158C45.7 156 91.3 152 137 155.5C182.7 159 228.3 170 274 169.5C319.7 169 365.3 157 411.2 153C457 149 503 153 548.8 152.3C594.7 151.7 640.3 146.3 686 142.7C731.7 139 777.3 137 823 135.3C868.7 133.7 914.3 132.3 937.2 131.7L960 131L960 0L937.2 0C914.3 0 868.7 0 823 0C777.3 0 731.7 0 686 0C640.3 0 594.7 0 548.8 0C503 0 457 0 411.2 0C365.3 0 319.7 0 274 0C228.3 0 182.7 0 137 0C91.3 0 45.7 0 22.8 0L0 0Z" fill="#1e364e"></path><path d="M0 96L22.8 95.8C45.7 95.7 91.3 95.3 137 96.2C182.7 97 228.3 99 274 101.8C319.7 104.7 365.3 108.3 411.2 116.5C457 124.7 503 137.3 548.8 141.7C594.7 146 640.3 142 686 141C731.7 140 777.3 142 823 145C868.7 148 914.3 152 937.2 154L960 156L960 0L937.2 0C914.3 0 868.7 0 823 0C777.3 0 731.7 0 686 0C640.3 0 594.7 0 548.8 0C503 0 457 0 411.2 0C365.3 0 319.7 0 274 0C228.3 0 182.7 0 137 0C91.3 0 45.7 0 22.8 0L0 0Z" fill="#344a64"></path><path d="M0 81L22.8 88C45.7 95 91.3 109 137 115.7C182.7 122.3 228.3 121.7 274 118C319.7 114.3 365.3 107.7 411.2 103C457 98.3 503 95.7 548.8 91.8C594.7 88 640.3 83 686 84.8C731.7 86.7 777.3 95.3 823 101C868.7 106.7 914.3 109.3 937.2 110.7L960 112L960 0L937.2 0C914.3 0 868.7 0 823 0C777.3 0 731.7 0 686 0C640.3 0 594.7 0 548.8 0C503 0 457 0 411.2 0C365.3 0 319.7 0 274 0C228.3 0 182.7 0 137 0C91.3 0 45.7 0 22.8 0L0 0Z" fill="#4a607a"></path><path d="M0 60L22.8 60.2C45.7 60.3 91.3 60.7 137 65.5C182.7 70.3 228.3 79.7 274 77.7C319.7 75.7 365.3 62.3 411.2 55.7C457 49 503 49 548.8 56C594.7 63 640.3 77 686 77.3C731.7 77.7 777.3 64.3 823 57.3C868.7 50.3 914.3 49.7 937.2 49.3L960 49L960 0L937.2 0C914.3 0 868.7 0 823 0C777.3 0 731.7 0 686 0C640.3 0 594.7 0 548.8 0C503 0 457 0 411.2 0C365.3 0 319.7 0 274 0C228.3 0 182.7 0 137 0C91.3 0 45.7 0 22.8 0L0 0Z" fill="#607691"></path><path d="M0 44L22.8 40.3C45.7 36.7 91.3 29.3 137 26C182.7 22.7 228.3 23.3 274 25.5C319.7 27.7 365.3 31.3 411.2 30.5C457 29.7 503 24.3 548.8 26.3C594.7 28.3 640.3 37.7 686 39.2C731.7 40.7 777.3 34.3 823 30.5C868.7 26.7 914.3 25.3 937.2 24.7L960 24L960 0L937.2 0C914.3 0 868.7 0 823 0C777.3 0 731.7 0 686 0C640.3 0 594.7 0 548.8 0C503 0 457 0 411.2 0C365.3 0 319.7 0 274 0C228.3 0 182.7 0 137 0C91.3 0 45.7 0 22.8 0L0 0Z" fill="#778da9"></path></svg>